<?xml version="1.0" encoding="UTF-8" standalone="no"?>
<!DOCTYPE svg PUBLIC "-//W3C//DTD SVG 1.1//EN" "http://www.w3.org/Graphics/SVG/1.1/DTD/svg11.dtd">
<!-- Created with Vectornator (http://vectornator.io/) -->
<svg height="100%" stroke-miterlimit="10" style="fill-rule:nonzero;clip-rule:evenodd;stroke-linecap:round;stroke-linejoin:round;" version="1.1" viewBox="0 0 1080 1080" width="100%" xml:space="preserve"
    xmlns="http://www.w3.org/2000/svg"
    xmlns:vectornator="http://vectornator.io"
    xmlns:xlink="http://www.w3.org/1999/xlink">
    <defs>
        <linearGradient gradientTransform="matrix(1 0 0 1 0 0)" gradientUnits="userSpaceOnUse" id="LinearGradient" x1="92.4057" x2="983.312" y1="540.188" y2="540.188">
            <stop offset="0" stop-color="#3c3c3c" stop-opacity="0.623061"/>
            <stop offset="1" stop-color="#000000"/>
        </linearGradient>
        <linearGradient gradientTransform="matrix(1 0 0 1 0 0)" gradientUnits="userSpaceOnUse" id="LinearGradient_2" x1="92.4057" x2="969.781" y1="508.188" y2="508.188">
            <stop offset="0" stop-color="#3c3c3c" stop-opacity="0.623061"/>
            <stop offset="1" stop-color="#000000"/>
        </linearGradient>
        <linearGradient gradientTransform="matrix(1 0 0 1 0 0)" gradientUnits="userSpaceOnUse" id="LinearGradient_3" x1="180" x2="776.344" y1="452.188" y2="452.188">
            <stop offset="0" stop-color="#3c3c3c" stop-opacity="0.623061"/>
            <stop offset="1" stop-color="#000000"/>
        </linearGradient>
        <linearGradient gradientTransform="matrix(1 0 0 1 0 0)" gradientUnits="userSpaceOnUse" id="LinearGradient_4" x1="314" x2="776.344" y1="596.328" y2="596.328">
            <stop offset="0" stop-color="#3c3c3c" stop-opacity="0.623061"/>
            <stop offset="1" stop-color="#000000"/>
        </linearGradient>
    </defs>
    <g id="图层-1" vectornator:layerName="图层 1">
        <path d="M525.375 92.375C521.652 92.4946 517.981 92.7903 514.281 93C509.294 93.3523 504.335 93.7907 499.406 94.3438C499.396 94.3449 499.385 94.3426 499.375 94.3438C499.354 94.3417 499.334 94.3459 499.312 94.3438C498.882 94.3018 498.462 94.2281 498.031 94.1875C498.011 94.1894 497.989 94.1856 497.969 94.1875C429.374 100.577 365.309 122.445 309.219 156.219C308.081 156.904 306.944 157.586 305.812 158.281C301.164 161.137 296.566 164.075 292.031 167.094C291.094 167.718 290.151 168.338 289.219 168.969C284.66 172.053 280.156 175.223 275.719 178.469C274.69 179.221 273.678 179.989 272.656 180.75C268.232 184.045 263.859 187.391 259.562 190.844C258.83 191.432 258.104 192.032 257.375 192.625C196.913 241.839 149.552 306.532 121.312 380.656C120.967 381.563 120.621 382.466 120.281 383.375C118.241 388.839 116.331 394.344 114.5 399.906C114.217 400.764 113.902 401.609 113.625 402.469C111.769 408.227 110.064 414.049 108.438 419.906C108.255 420.563 108.055 421.217 107.875 421.875C106.318 427.582 104.866 433.33 103.531 439.125C103.275 440.237 103.029 441.352 102.781 442.469C101.512 448.182 100.361 453.957 99.3125 459.75C99.1465 460.667 98.9728 461.582 98.8125 462.5C97.7753 468.443 96.863 474.417 96.0625 480.438C95.9547 481.248 95.8535 482.062 95.75 482.875C94.0624 496.124 92.9103 509.539 92.4062 523.125C92.4083 523.177 92.4042 523.23 92.4062 523.281C92.4079 523.323 92.4045 523.364 92.4062 523.406C100.613 732.34 274.656 901.931 496 921.969C481.522 923.279 466.848 924 452 924C377.157 924 306.672 906.852 244.656 876.719C323.513 945.946 426.819 988.001 540 988C765.521 988 952.043 821.332 983.312 604.469C966.078 633.343 944.885 659.564 920.531 682.469C920.525 682.481 920.506 682.487 920.5 682.5C889.962 711.214 854.382 734.581 815.281 751.312C776.15 768.057 733.474 778.075 688.656 779.875C696.641 776.249 704.466 772.337 712.125 768.156C712.138 768.149 712.144 768.132 712.156 768.125C715.265 766.428 718.23 764.504 721.281 762.719C725.767 760.093 730.329 757.562 734.688 754.75C749.341 745.303 763.25 734.817 776.344 723.406C772.326 724.764 768.274 726.047 764.188 727.25C764.051 727.29 763.919 727.337 763.781 727.375C762.396 727.78 761.05 728.269 759.656 728.656C758.032 729.107 756.358 729.432 754.719 729.844C754.687 729.852 754.657 729.867 754.625 729.875C754.605 729.88 754.582 729.87 754.562 729.875C754.521 729.884 754.479 729.896 754.438 729.906C754.354 729.928 754.271 729.947 754.188 729.969C754.124 729.985 754.064 730.013 754 730.031C753.276 730.219 752.569 730.443 751.844 730.625C749.634 731.181 747.384 731.646 745.156 732.156C743.073 732.63 741.036 733.223 738.938 733.656C737.277 733.999 735.575 734.216 733.906 734.531C731.46 734.999 729.029 735.494 726.562 735.906C724.855 736.191 723.124 736.397 721.406 736.656C720.177 736.839 718.984 737.112 717.75 737.281C717.081 737.373 716.392 737.392 715.719 737.469C715.656 737.476 715.593 737.492 715.531 737.5C715.468 737.508 715.408 737.523 715.344 737.531C710.457 738.169 705.548 738.743 700.594 739.156C699.62 739.237 698.631 739.271 697.656 739.344C697.594 739.348 697.531 739.34 697.469 739.344C697.438 739.346 697.406 739.34 697.375 739.344C697.312 739.352 697.25 739.37 697.188 739.375C696.699 739.41 696.208 739.435 695.719 739.469C694.885 739.513 694.051 739.545 693.219 739.594C693.188 739.596 693.156 739.592 693.125 739.594C692.989 739.602 692.854 739.616 692.719 739.625C686.524 739.988 680.287 740.25 674 740.25C497.269 740.25 354 596.981 354 420.25C354 406.836 354.928 393.637 356.531 380.656C354.312 384.513 352.186 388.42 350.125 392.375C348.086 396.289 346.098 400.244 344.219 404.25C344.199 404.292 344.175 404.333 344.156 404.375C344.059 404.582 343.971 404.793 343.875 405C332.635 429.119 324.327 454.873 319.375 481.812C315.922 461.791 314 441.258 314 420.25C314 413.115 314.279 406.045 314.75 399.031C314.756 398.947 314.776 398.865 314.781 398.781C314.786 398.709 314.776 398.635 314.781 398.562C314.783 398.531 314.776 398.499 314.781 398.469C315.191 391.629 315.9 384.887 316.688 378.156C316.799 377.199 316.906 376.243 317 375.281C317.244 372.784 317.452 370.276 317.812 367.812C317.82 367.76 317.836 367.709 317.844 367.656C317.848 367.625 317.871 367.594 317.875 367.562C317.878 367.542 317.872 367.521 317.875 367.5C317.876 367.49 317.876 367.479 317.875 367.469C317.874 367.458 317.874 367.447 317.875 367.438C317.877 367.427 317.873 367.416 317.875 367.406C317.88 367.374 317.902 367.345 317.906 367.312C318.598 362.625 319.567 358.033 320.438 353.406C320.605 352.556 320.74 351.695 320.906 350.844C321.119 349.787 321.283 348.713 321.5 347.656C321.855 345.929 322.089 344.156 322.469 342.438C322.487 342.353 322.513 342.272 322.531 342.188C322.533 342.178 322.529 342.166 322.531 342.156C322.538 342.124 322.555 342.094 322.562 342.062C323.613 337.324 324.921 332.697 326.156 328.031C326.195 327.885 326.242 327.74 326.281 327.594C326.434 327.034 326.566 326.466 326.719 325.906C327.457 323.189 328.044 320.409 328.844 317.719C328.919 317.465 329.018 317.222 329.094 316.969C329.096 316.96 329.089 316.946 329.094 316.938C329.098 316.925 329.121 316.919 329.125 316.906C329.134 316.875 329.147 316.844 329.156 316.812C330.942 310.857 333.012 305.04 335.094 299.219C335.205 298.909 335.307 298.596 335.406 298.281C335.449 298.146 335.487 298.01 335.531 297.875C335.987 296.484 336.424 295.082 336.938 293.719C336.997 293.561 337.065 293.408 337.125 293.25C337.137 293.219 337.141 293.185 337.156 293.156C338.968 288.362 341.038 283.687 343.062 279C343.16 278.772 343.247 278.54 343.344 278.312C343.362 278.27 343.388 278.23 343.406 278.188C343.595 277.75 343.777 277.311 343.969 276.875C344.14 276.481 344.306 276.085 344.469 275.688C345.174 273.966 345.82 272.217 346.594 270.531C346.726 270.243 346.898 269.976 347.031 269.688C347.051 269.645 347.074 269.605 347.094 269.562C347.113 269.521 347.138 269.48 347.156 269.438C347.16 269.429 347.153 269.415 347.156 269.406C347.349 268.991 347.577 268.596 347.781 268.188C348.322 267.034 348.948 265.928 349.5 264.781C350.497 262.71 351.558 260.674 352.594 258.625C353.503 256.825 354.374 255.001 355.312 253.219C355.514 252.836 355.703 252.444 355.906 252.062C356.07 251.754 356.221 251.438 356.375 251.125C356.859 250.142 357.32 249.146 357.844 248.188C357.943 248.007 358.057 247.837 358.156 247.656C359.142 245.857 360.256 244.146 361.281 242.375C362.146 240.862 363.06 239.381 363.938 237.875C364.993 236.089 366.064 234.313 367.125 232.531C367.631 231.709 368.082 230.85 368.594 230.031C368.606 230.012 368.612 229.988 368.625 229.969C369.286 228.913 369.859 227.798 370.531 226.75C370.653 226.56 370.784 226.377 370.906 226.188C370.914 226.175 370.926 226.166 370.938 226.156C370.945 226.144 370.961 226.137 370.969 226.125C370.974 226.117 370.965 226.102 370.969 226.094C370.974 226.081 370.992 226.074 371 226.062C374.854 220.067 378.932 214.244 383.125 208.5C383.2 208.397 383.269 208.29 383.344 208.188C383.494 207.982 383.632 207.767 383.781 207.562C384.082 207.153 384.354 206.721 384.656 206.312C384.718 206.229 384.781 206.146 384.844 206.062C384.852 206.051 384.864 206.041 384.875 206.031C384.884 206.02 384.898 206.011 384.906 206C384.924 205.976 384.95 205.961 384.969 205.938C389.513 199.824 394.272 193.869 399.188 188.062C399.264 187.972 399.329 187.872 399.406 187.781C399.502 187.668 399.591 187.55 399.688 187.438C399.827 187.274 399.954 187.101 400.094 186.938C400.113 186.915 400.137 186.897 400.156 186.875C400.175 186.853 400.201 186.835 400.219 186.812C400.238 186.79 400.265 186.774 400.281 186.75C400.294 186.731 400.298 186.705 400.312 186.688C405.202 180.967 410.298 175.433 415.531 170.031C415.562 170 415.594 169.969 415.625 169.938C415.753 169.805 415.872 169.664 416 169.531C416.278 169.246 416.534 168.94 416.812 168.656C416.849 168.619 416.901 168.599 416.938 168.562C416.958 168.541 416.979 168.521 417 168.5C417.031 168.468 417.063 168.438 417.094 168.406C417.145 168.354 417.198 168.303 417.25 168.25C417.39 168.108 417.548 167.986 417.688 167.844C422.559 162.901 427.603 158.153 432.75 153.5C432.761 153.49 432.77 153.479 432.781 153.469C432.918 153.345 433.051 153.218 433.188 153.094C434.136 152.24 435.073 151.375 436.031 150.531C436.136 150.438 436.239 150.343 436.344 150.25C436.449 150.158 436.551 150.061 436.656 149.969C441.047 146.115 445.609 142.45 450.188 138.812C452.033 137.345 453.844 135.838 455.719 134.406C461.043 130.341 466.48 126.425 472.031 122.656C472.944 122.037 473.832 121.393 474.75 120.781C474.805 120.744 474.851 120.693 474.906 120.656C474.925 120.643 474.95 120.638 474.969 120.625C474.98 120.617 474.988 120.601 475 120.594C482.139 115.849 489.485 111.395 496.969 107.156C497.095 107.085 497.218 107.009 497.344 106.938C497.465 106.869 497.597 106.819 497.719 106.75C504.118 103.148 510.584 99.6562 517.219 96.4375C519.955 95.1102 522.601 93.6346 525.375 92.375Z" fill="url(#LinearGradient)" fill-rule="nonzero" opacity="0.62031" stroke="none" vectornator:blendMode="difference"/>
        <path d="M525.375 92.375C521.652 92.4946 517.981 92.7903 514.281 93C509.294 93.3523 504.335 93.7907 499.406 94.3438C499.396 94.3449 499.385 94.3426 499.375 94.3438C499.354 94.3417 499.334 94.3458 499.312 94.3438C498.882 94.3018 498.462 94.2282 498.031 94.1875C498.011 94.1894 497.989 94.1856 497.969 94.1875C489.973 94.9323 482.055 95.9339 474.188 97.0938C472.092 97.4025 470.024 97.7874 467.938 98.125C462.412 99.02 456.924 99.9985 451.469 101.094C448.659 101.657 445.853 102.259 443.062 102.875C437.755 104.048 432.485 105.328 427.25 106.688C425.124 107.239 422.989 107.762 420.875 108.344C405.608 112.55 390.629 117.484 376.062 123.219C375.98 123.251 375.895 123.279 375.812 123.312C375.708 123.354 375.604 123.396 375.5 123.438C374.894 123.693 374.299 123.974 373.688 124.219C371.4 125.134 369.174 126.173 366.906 127.125C362.788 128.851 358.645 130.529 354.594 132.375C353.167 133.025 351.763 133.711 350.344 134.375C344.394 137.161 338.522 140.058 332.719 143.094C331.604 143.677 330.484 144.252 329.375 144.844C322.56 148.482 315.819 152.245 309.219 156.219C308.081 156.904 306.944 157.586 305.812 158.281C303.08 159.96 300.412 161.734 297.719 163.469C295.828 164.686 293.901 165.849 292.031 167.094C291.094 167.718 290.152 168.338 289.219 168.969C284.66 172.053 280.156 175.223 275.719 178.469C274.69 179.221 273.678 179.989 272.656 180.75C270.122 182.637 267.649 184.592 265.156 186.531C263.295 187.972 261.398 189.369 259.562 190.844C258.83 191.432 258.104 192.032 257.375 192.625C250.762 198.007 244.354 203.63 238.062 209.375C236.419 210.876 234.778 212.381 233.156 213.906C220.418 225.89 208.391 238.608 197.125 252C195.853 253.512 194.596 255.034 193.344 256.562C182.052 270.35 171.575 284.818 161.969 299.906C161.248 301.039 160.524 302.173 159.812 303.312C150.166 318.769 141.425 334.857 133.688 351.5C133.047 352.878 132.44 354.271 131.812 355.656C128.094 363.874 124.541 372.183 121.312 380.656C120.967 381.563 120.621 382.466 120.281 383.375C118.241 388.839 116.331 394.344 114.5 399.906C114.217 400.764 113.902 401.61 113.625 402.469C111.769 408.227 110.064 414.049 108.438 419.906C108.255 420.563 108.055 421.217 107.875 421.875C107.726 422.422 107.616 422.983 107.469 423.531C106.079 428.698 104.738 433.885 103.531 439.125C103.275 440.237 103.029 441.352 102.781 442.469C101.512 448.182 100.361 453.957 99.3125 459.75C99.1465 460.667 98.9727 461.582 98.8125 462.5C97.7753 468.443 96.863 474.417 96.0625 480.438C95.9547 481.248 95.8536 482.062 95.75 482.875C94.9222 489.374 94.2025 495.917 93.6562 502.5C93.6456 502.625 93.6356 502.749 93.625 502.875C93.0735 509.589 92.6584 516.329 92.4062 523.125C92.4083 523.177 92.4042 523.23 92.4062 523.281C92.4079 523.323 92.4045 523.364 92.4062 523.406C100.613 732.34 274.656 901.931 496 921.969C496.021 921.967 496.042 921.972 496.062 921.969C510.52 923.276 525.173 924 540 924C743.481 924 915.177 798.005 969.781 625.469C969.743 625.523 969.694 625.571 969.656 625.625C965.29 631.891 960.685 637.974 955.938 643.938C954.702 645.491 953.417 646.999 952.156 648.531C948.398 653.095 944.536 657.565 940.562 661.938C939.273 663.358 938 664.788 936.688 666.188C931.454 671.766 926.104 677.228 920.531 682.469C920.525 682.481 920.506 682.487 920.5 682.5C889.962 711.214 854.382 734.581 815.281 751.312C776.15 768.057 733.475 778.075 688.656 779.875C696.644 776.247 704.464 772.34 712.125 768.156C712.138 768.149 712.144 768.132 712.156 768.125C713.286 767.508 714.366 766.815 715.469 766.156C716.027 765.843 716.568 765.503 717.125 765.188C718.527 764.392 719.891 763.533 721.281 762.719C725.759 760.098 730.304 757.556 734.656 754.75C749.314 745.297 763.245 734.822 776.344 723.406C772.326 724.764 768.274 726.047 764.188 727.25C764.032 727.296 763.874 727.33 763.719 727.375C762.354 727.777 761.03 728.275 759.656 728.656C758.032 729.107 756.358 729.432 754.719 729.844C754.667 729.857 754.614 729.861 754.562 729.875C754.521 729.886 754.479 729.895 754.438 729.906C754.354 729.928 754.271 729.947 754.188 729.969C754.124 729.985 754.064 730.013 754 730.031C753.276 730.219 752.569 730.443 751.844 730.625C749.963 731.098 748.056 731.512 746.156 731.938C745.823 732.012 745.489 732.08 745.156 732.156C745.146 732.159 745.134 732.154 745.125 732.156C743.052 732.629 741.026 733.225 738.938 733.656C737.494 733.954 736.02 734.151 734.562 734.406C734.343 734.449 734.126 734.489 733.906 734.531C733.657 734.579 733.406 734.61 733.156 734.656C730.957 735.071 728.778 735.536 726.562 735.906C724.928 736.179 723.271 736.381 721.625 736.625C721.552 736.636 721.479 736.645 721.406 736.656C721.229 736.683 721.052 736.723 720.875 736.75C720.845 736.755 720.812 736.745 720.781 736.75C719.77 736.923 718.774 737.141 717.75 737.281C717.174 737.36 716.583 737.383 716 737.438C715.99 737.439 715.979 737.436 715.969 737.438C715.885 737.445 715.802 737.459 715.719 737.469C715.656 737.477 715.594 737.492 715.531 737.5C715.468 737.508 715.408 737.523 715.344 737.531C709.497 738.294 703.6 738.904 697.656 739.344C697.594 739.348 697.531 739.339 697.469 739.344C697.416 739.347 697.365 739.371 697.312 739.375C697.303 739.376 697.291 739.374 697.281 739.375C697.25 739.377 697.219 739.373 697.188 739.375C696.699 739.41 696.208 739.435 695.719 739.469C695.583 739.477 695.448 739.492 695.312 739.5C695.073 739.516 694.833 739.516 694.594 739.531C694.291 739.549 693.99 739.575 693.688 739.594C693.532 739.603 693.374 739.584 693.219 739.594C693.052 739.604 692.886 739.615 692.719 739.625C686.524 739.988 680.287 740.25 674 740.25C497.269 740.25 354 596.981 354 420.25C354 406.836 354.928 393.637 356.531 380.656C354.312 384.513 352.186 388.42 350.125 392.375C348.086 396.289 346.098 400.244 344.219 404.25C344.199 404.292 344.175 404.333 344.156 404.375C344.059 404.582 343.971 404.793 343.875 405C332.635 429.119 324.327 454.873 319.375 481.812C315.922 461.791 314 441.258 314 420.25C314 413.115 314.279 406.045 314.75 399.031C314.756 398.947 314.776 398.865 314.781 398.781C314.786 398.709 314.776 398.635 314.781 398.562C314.783 398.531 314.776 398.499 314.781 398.469C314.783 398.436 314.804 398.407 314.812 398.375C314.814 398.354 314.811 398.333 314.812 398.312C314.814 398.281 314.811 398.25 314.812 398.219C314.902 396.738 314.861 395.225 314.969 393.75C315.352 388.492 316.08 383.349 316.688 378.156C316.799 377.199 316.906 376.243 317 375.281C317.244 372.784 317.452 370.277 317.812 367.812C317.82 367.76 317.836 367.709 317.844 367.656C317.848 367.625 317.871 367.594 317.875 367.562C317.878 367.542 317.872 367.521 317.875 367.5C317.876 367.49 317.876 367.479 317.875 367.469C317.874 367.458 317.874 367.447 317.875 367.438C317.877 367.427 317.873 367.416 317.875 367.406C317.88 367.374 317.902 367.345 317.906 367.312C318.598 362.625 319.567 358.033 320.438 353.406C320.605 352.556 320.74 351.695 320.906 350.844C321.119 349.787 321.283 348.712 321.5 347.656C321.855 345.929 322.089 344.156 322.469 342.438C322.487 342.353 322.513 342.272 322.531 342.188C322.533 342.178 322.529 342.166 322.531 342.156C322.538 342.124 322.555 342.095 322.562 342.062C323.613 337.324 324.921 332.697 326.156 328.031C326.195 327.885 326.242 327.741 326.281 327.594C326.434 327.034 326.567 326.466 326.719 325.906C327.457 323.189 328.044 320.409 328.844 317.719C328.919 317.465 329.018 317.222 329.094 316.969C329.096 316.96 329.089 316.946 329.094 316.938C329.098 316.925 329.121 316.919 329.125 316.906C329.134 316.875 329.147 316.844 329.156 316.812C330.942 310.857 333.012 305.04 335.094 299.219C335.205 298.909 335.307 298.596 335.406 298.281C335.449 298.146 335.487 298.01 335.531 297.875C335.987 296.484 336.424 295.082 336.938 293.719C336.997 293.561 337.065 293.408 337.125 293.25C337.137 293.219 337.141 293.185 337.156 293.156C337.161 293.143 337.183 293.138 337.188 293.125C338.995 288.343 341.045 283.675 343.062 279C343.16 278.772 343.248 278.54 343.344 278.312C343.362 278.27 343.387 278.23 343.406 278.188C343.595 277.75 343.777 277.311 343.969 276.875C344.14 276.481 344.306 276.085 344.469 275.688C345.174 273.966 345.82 272.217 346.594 270.531C346.726 270.243 346.898 269.976 347.031 269.688C347.051 269.645 347.074 269.605 347.094 269.562C347.113 269.521 347.139 269.48 347.156 269.438C347.16 269.429 347.153 269.415 347.156 269.406C347.176 269.364 347.196 269.322 347.219 269.281C347.264 269.184 347.33 269.097 347.375 269C347.503 268.725 347.652 268.462 347.781 268.188C348.322 267.034 348.947 265.928 349.5 264.781C350.497 262.71 351.559 260.674 352.594 258.625C353.503 256.825 354.374 255.001 355.312 253.219C355.514 252.836 355.703 252.444 355.906 252.062C356.07 251.754 356.221 251.438 356.375 251.125C356.859 250.142 357.32 249.146 357.844 248.188C357.949 247.994 358.082 247.818 358.188 247.625C359.167 245.839 360.265 244.135 361.281 242.375C362.146 240.862 363.06 239.381 363.938 237.875C364.603 236.749 365.266 235.622 365.938 234.5C366.064 234.293 366.185 234.082 366.312 233.875C366.344 233.823 366.375 233.771 366.406 233.719C366.647 233.324 366.883 232.925 367.125 232.531C367.631 231.709 368.082 230.85 368.594 230.031C368.606 230.012 368.612 229.988 368.625 229.969C369.286 228.913 369.859 227.798 370.531 226.75C370.653 226.56 370.784 226.377 370.906 226.188C370.914 226.175 370.926 226.166 370.938 226.156C370.945 226.144 370.961 226.137 370.969 226.125C370.974 226.117 370.965 226.102 370.969 226.094C370.974 226.081 370.992 226.074 371 226.062C374.854 220.067 378.931 214.243 383.125 208.5C383.2 208.397 383.269 208.289 383.344 208.188C383.494 207.982 383.632 207.767 383.781 207.562C384.082 207.153 384.354 206.721 384.656 206.312C384.718 206.229 384.781 206.146 384.844 206.062C384.852 206.051 384.864 206.041 384.875 206.031C384.884 206.02 384.898 206.011 384.906 206C384.924 205.976 384.95 205.961 384.969 205.938C389.513 199.825 394.273 193.869 399.188 188.062C399.264 187.972 399.329 187.871 399.406 187.781C399.502 187.668 399.591 187.55 399.688 187.438C399.827 187.274 399.954 187.101 400.094 186.938C400.113 186.915 400.137 186.897 400.156 186.875C400.175 186.853 400.201 186.835 400.219 186.812C400.238 186.79 400.265 186.774 400.281 186.75C400.294 186.731 400.298 186.704 400.312 186.688C405.202 180.967 410.297 175.433 415.531 170.031C415.562 170 415.594 169.969 415.625 169.938C415.753 169.805 415.871 169.663 416 169.531C416.278 169.246 416.534 168.94 416.812 168.656C416.849 168.619 416.901 168.599 416.938 168.562C416.958 168.541 416.979 168.521 417 168.5C417.031 168.468 417.063 168.438 417.094 168.406C417.145 168.354 417.198 168.303 417.25 168.25C417.39 168.108 417.548 167.986 417.688 167.844C422.559 162.901 427.603 158.153 432.75 153.5C432.761 153.49 432.771 153.479 432.781 153.469C432.918 153.345 433.05 153.218 433.188 153.094C433.724 152.61 434.21 152.075 434.75 151.594C435.164 151.226 435.616 150.898 436.031 150.531C436.136 150.438 436.239 150.343 436.344 150.25C436.449 150.158 436.551 150.061 436.656 149.969C438.979 147.93 441.417 146.02 443.812 144.062C443.977 143.925 444.145 143.791 444.312 143.656C444.364 143.614 444.417 143.573 444.469 143.531C444.583 143.437 444.699 143.344 444.812 143.25C447.83 140.758 450.747 138.149 453.844 135.75C454.452 135.279 455.108 134.873 455.719 134.406C461.043 130.341 466.48 126.425 472.031 122.656C472.692 122.207 473.305 121.695 473.969 121.25C474.221 121.081 474.498 120.949 474.75 120.781C474.805 120.744 474.85 120.693 474.906 120.656C474.925 120.643 474.95 120.638 474.969 120.625C474.98 120.617 474.988 120.601 475 120.594C475.611 120.188 476.261 119.839 476.875 119.438C482.855 115.515 488.904 111.697 495.125 108.125C495.726 107.78 496.366 107.498 496.969 107.156C497.095 107.085 497.217 107.009 497.344 106.938C497.465 106.869 497.598 106.819 497.719 106.75C504.118 103.148 510.584 99.6561 517.219 96.4375C519.955 95.1102 522.601 93.6346 525.375 92.375Z" fill="url(#LinearGradient_2)" fill-rule="nonzero" opacity="0.62031" stroke="none"/>
        <path d="M525.375 92.375C521.652 92.4946 517.981 92.7903 514.281 93C509.294 93.3523 504.335 93.7906 499.406 94.3438C499.396 94.3449 499.385 94.3426 499.375 94.3438C499.354 94.3417 499.334 94.3458 499.312 94.3438C319.656 114.564 180 266.941 180 452C180 618.815 293.478 759.084 447.438 799.938C447.444 799.942 447.462 799.933 447.469 799.938C477.001 807.771 508.003 812 540 812C592.994 812 643.257 800.468 688.562 779.906C688.571 779.902 688.585 779.91 688.594 779.906C720.633 765.362 750.147 746.237 776.344 723.406C744.199 734.27 709.817 740.25 674 740.25C497.269 740.25 354 596.981 354 420.25C354 406.836 354.928 393.637 356.531 380.656C354.312 384.513 352.186 388.42 350.125 392.375C348.086 396.289 346.098 400.244 344.219 404.25C344.199 404.292 344.175 404.333 344.156 404.375C344.059 404.582 343.971 404.793 343.875 405C332.635 429.119 324.327 454.873 319.375 481.812C315.922 461.791 314 441.258 314 420.25C314 277.691 397.027 154.748 517.219 96.4375C519.955 95.1102 522.601 93.6346 525.375 92.375Z" fill="url(#LinearGradient_3)" fill-rule="nonzero" opacity="0.62031" stroke="none" vectornator:blendMode="difference"/>
        <path d="M356.531 380.656C354.312 384.513 352.186 388.42 350.125 392.375C348.086 396.289 346.098 400.244 344.219 404.25C344.199 404.292 344.175 404.333 344.156 404.375C344.059 404.582 343.971 404.793 343.875 405C332.635 429.119 324.327 454.873 319.375 481.812C319.377 481.823 319.373 481.833 319.375 481.844C315.908 500.713 314 520.128 314 540C314 647.096 366.652 741.852 447.438 799.938C447.444 799.942 447.462 799.933 447.469 799.938C477.001 807.771 508.003 812 540 812C592.994 812 643.257 800.468 688.562 779.906C688.571 779.902 688.585 779.911 688.594 779.906C720.633 765.362 750.147 746.237 776.344 723.406C772.326 724.764 768.274 726.047 764.188 727.25C764.032 727.296 763.874 727.33 763.719 727.375C760.646 728.273 757.548 729.099 754.438 729.906C751.384 730.702 748.307 731.449 745.219 732.156C745.199 732.161 745.176 732.152 745.156 732.156C745.146 732.159 745.135 732.154 745.125 732.156C741.624 732.957 738.106 733.721 734.562 734.406C734.343 734.449 734.126 734.489 733.906 734.531C733.657 734.579 733.406 734.609 733.156 734.656C729.272 735.389 725.37 736.065 721.438 736.656C721.427 736.658 721.416 736.655 721.406 736.656C721.229 736.683 721.053 736.723 720.875 736.75C719.097 737.015 717.321 737.268 715.531 737.5C709.674 738.268 703.767 738.869 697.812 739.312C697.759 739.316 697.709 739.34 697.656 739.344C696.337 739.44 695.011 739.513 693.688 739.594C693.532 739.603 693.374 739.584 693.219 739.594C686.86 739.976 680.457 740.25 674 740.25C497.269 740.25 354 596.981 354 420.25C354 406.836 354.928 393.637 356.531 380.656Z" fill="url(#LinearGradient_4)" fill-rule="nonzero" opacity="0.62031" stroke="none" vectornator:blendMode="difference"/>
    </g>
</svg>
